<svg width="21" height="21" viewBox="0 0 21 21" fill="none" xmlns="http://www.w3.org/2000/svg">
<path d="M14.8125 4.35742L14.1875 5.43867C15.4982 6.19538 16.5225 7.36343 17.1017 8.76165C17.6808 10.1599 17.7824 11.7101 17.3907 13.172C16.999 14.6338 16.1359 15.9256 14.9352 16.8469C13.7346 17.7682 12.2634 18.2676 10.75 18.2676C9.23658 18.2676 7.76545 17.7682 6.56477 16.8469C5.36409 15.9256 4.50097 14.6338 4.10926 13.172C3.71756 11.7101 3.81917 10.1599 4.39833 8.76165C4.97749 7.36343 6.00184 6.19538 7.3125 5.43867L6.6875 4.35742C5.13854 5.25172 3.92795 6.63213 3.24348 8.28458C2.55902 9.93702 2.43893 11.7691 2.90186 13.4968C3.36478 15.2244 4.38483 16.751 5.80382 17.8399C7.2228 18.9287 8.96141 19.5189 10.75 19.5189C12.5386 19.5189 14.2772 18.9287 15.6962 17.8399C17.1152 16.751 18.1352 15.2244 18.5981 13.4968C19.0611 11.7691 18.941 9.93702 18.2565 8.28458C17.5721 6.63213 16.3615 5.25172 14.8125 4.35742Z" fill="white"/>
<path d="M10.125 2.01953H11.375V10.7695H10.125V2.01953Z" fill="white"/>
</svg>
