<svg width="16" height="22" viewBox="0 0 16 22" fill="none" xmlns="http://www.w3.org/2000/svg">
<path d="M13.3333 9.12589V6.27255C13.3619 4.82714 12.8168 3.42924 11.8173 2.38474C10.8178 1.34024 9.44523 0.734196 7.99996 0.699219C6.55469 0.734196 5.18212 1.34024 4.1826 2.38474C3.18308 3.42924 2.63799 4.82714 2.66663 6.27255V9.12589H0.666626V20.4592C0.666626 20.8128 0.807102 21.152 1.05715 21.402C1.3072 21.6521 1.64634 21.7926 1.99996 21.7926H14C14.3536 21.7926 14.6927 21.6521 14.9428 21.402C15.1928 21.152 15.3333 20.8128 15.3333 20.4592V9.12589H13.3333ZM3.99996 6.27255C3.97122 5.18071 4.3758 4.12188 5.1253 3.3274C5.8748 2.53293 6.90829 2.06741 7.99996 2.03255C9.09162 2.06741 10.1251 2.53293 10.8746 3.3274C11.6241 4.12188 12.0287 5.18071 12 6.27255V9.12589H3.99996V6.27255ZM1.99996 20.4592V10.4592H14V20.4592H1.99996Z" fill="white"/>
</svg>
